<?xml version="1.0" standalone="no"?>
<!DOCTYPE svg PUBLIC "-//W3C//DTD SVG 20010904//EN"
 "http://www.w3.org/TR/2001/REC-SVG-20010904/DTD/svg10.dtd">
<svg version="1.0" xmlns="http://www.w3.org/2000/svg"
 width="50.000000pt" height="50.000000pt" viewBox="0 0 50.000000 50.000000"
 preserveAspectRatio="xMidYMid meet">

<g transform="translate(0.000000,50.000000) scale(0.100000,-0.100000)"
fill="#000000" stroke="none">
<path d="M280 401 c0 -6 15 -14 32 -19 18 -4 34 -16 36 -25 3 -15 -7 -17 -86
-17 -71 0 -91 3 -96 15 -3 9 0 15 9 15 7 0 17 5 20 10 4 6 -12 10 -39 10 -34
0 -46 -4 -46 -15 0 -8 9 -15 19 -15 24 0 33 -24 20 -53 -8 -19 -17 -22 -45
-19 -28 4 -40 -2 -69 -31 -47 -47 -48 -86 -1 -133 24 -24 43 -34 64 -34 34 0
87 39 97 70 4 12 15 20 28 20 15 0 40 22 77 66 30 36 56 61 58 55 2 -6 -10
-27 -27 -47 -42 -48 -41 -86 3 -130 24 -25 43 -34 66 -34 44 0 100 56 100 100
0 41 -56 100 -94 100 -21 0 -27 7 -35 38 -6 20 -11 45 -11 55 0 11 -8 17 -24
17 -13 0 -31 3 -40 6 -9 3 -16 1 -16 -5z m14 -136 c-26 -30 -49 -55 -51 -55
-3 0 -53 97 -53 105 0 3 34 5 76 5 l75 0 -47 -55z m-96 -11 c13 -26 21 -49 18
-51 -8 -8 -26 7 -26 21 0 7 -9 21 -19 30 -18 16 -19 46 -2 46 4 0 17 -21 29
-46z m-78 4 c-1 -7 -7 -24 -15 -38 -21 -37 -19 -40 30 -40 25 0 45 -5 45 -10
0 -23 -50 -60 -80 -60 -70 0 -105 86 -55 135 25 26 75 34 75 13z m335 -13 c50
-49 15 -135 -55 -135 -63 0 -101 75 -64 128 22 31 32 28 45 -18 7 -22 16 -40
21 -40 5 0 7 8 4 18 -19 64 -19 72 3 72 12 0 33 -11 46 -25z m-285 -14 c15
-28 13 -31 -20 -31 -16 0 -30 3 -30 6 0 12 21 44 30 44 5 0 14 -9 20 -19z"/>
</g>
</svg>
