<?xml version="1.0" standalone="no"?>
<!DOCTYPE svg PUBLIC "-//W3C//DTD SVG 20010904//EN"
 "http://www.w3.org/TR/2001/REC-SVG-20010904/DTD/svg10.dtd">
<svg version="1.0" xmlns="http://www.w3.org/2000/svg"
 width="100.000000pt" height="100.000000pt" viewBox="0 0 100.000000 100.000000"
 preserveAspectRatio="xMidYMid meet">

<g transform="translate(0.000000,100.000000) scale(0.100000,-0.100000)"
fill="#000000" stroke="none">
<path d="M237 818 c-11 -9 -21 -40 -28 -90 l-11 -77 -36 -3 c-42 -4 -63 -29
-46 -55 6 -10 21 -19 33 -21 25 -4 25 -1 6 -45 -8 -20 -15 -65 -15 -101 0 -36
-5 -68 -10 -71 -6 -3 -10 -21 -10 -40 0 -19 5 -37 10 -40 6 -3 10 -23 10 -44
0 -45 14 -61 55 -61 40 0 55 16 55 57 l0 33 250 0 250 0 0 -33 c0 -41 15 -57
55 -57 41 0 55 16 55 61 0 21 5 41 10 44 13 8 13 72 0 80 -5 3 -10 35 -10 71
0 36 -7 81 -15 101 -19 44 -19 41 6 45 12 2 27 11 33 21 17 26 -4 51 -46 55
l-36 3 -11 77 c-7 50 -17 81 -28 90 -12 9 -82 12 -263 12 -181 0 -251 -3 -263
-12z m520 -20 c6 -7 13 -38 17 -68 4 -30 9 -70 12 -87 6 -31 5 -33 -24 -33
-24 0 -34 6 -44 27 -32 68 -132 65 -159 -4 -8 -23 -10 -23 -180 -23 l-171 0 6
33 c3 17 8 57 12 87 4 30 11 61 17 68 7 9 71 12 257 12 186 0 250 -3 257 -12z
m-70 -150 c13 -12 23 -25 23 -30 0 -4 -31 -8 -70 -8 -38 0 -70 3 -70 7 0 4 10
17 22 30 27 29 65 29 95 1z m-497 -38 c0 -16 -7 -20 -30 -20 -23 0 -30 4 -30
20 0 16 7 20 30 20 23 0 30 -4 30 -20z m680 0 c0 -16 -7 -20 -30 -20 -23 0
-30 4 -30 20 0 16 7 20 30 20 23 0 30 -4 30 -20z m-52 -65 l21 -44 -62 -3 -62
-3 0 -40 0 -40 63 -3 c54 -3 62 -6 62 -22 0 -19 -9 -20 -340 -20 -331 0 -340
1 -340 20 0 16 8 19 63 22 l62 3 0 40 0 40 -62 3 -62 3 21 44 22 45 296 0 296
0 22 -45z m-618 -90 c0 -28 -4 -35 -20 -35 -16 0 -20 7 -20 35 0 28 4 35 20
35 16 0 20 -7 20 -35z m80 0 c0 -33 -2 -35 -35 -35 -33 0 -35 2 -35 35 0 33 2
35 35 35 33 0 35 -2 35 -35z m510 0 c0 -33 -2 -35 -35 -35 -33 0 -35 2 -35 35
0 33 2 35 35 35 33 0 35 -2 35 -35z m50 0 c0 -28 -4 -35 -20 -35 -16 0 -20 7
-20 35 0 28 4 35 20 35 16 0 20 -7 20 -35z m20 -140 l0 -35 -360 0 -360 0 0
35 0 35 360 0 360 0 0 -35z m-630 -90 c0 -33 -2 -35 -35 -35 -33 0 -35 2 -35
35 0 33 2 35 35 35 33 0 35 -2 35 -35z m610 0 c0 -33 -2 -35 -35 -35 -33 0
-35 2 -35 35 0 33 2 35 35 35 33 0 35 -2 35 -35z"/>
<path d="M455 770 c-12 -19 10 -32 51 -28 27 2 39 8 39 18 0 19 -79 27 -90 10z
m85 -10 c0 -5 -18 -10 -40 -10 -22 0 -40 5 -40 10 0 6 18 10 40 10 22 0 40 -4
40 -10z"/>
<path d="M346 484 c-9 -8 -16 -22 -16 -29 0 -7 7 -21 16 -29 23 -23 285 -23
308 0 20 20 20 38 0 58 -23 23 -285 23 -308 0z m44 -29 c0 -19 -4 -35 -10 -35
-5 0 -10 16 -10 35 0 19 5 35 10 35 6 0 10 -16 10 -35z m30 0 c0 -19 -4 -35
-10 -35 -5 0 -10 16 -10 35 0 19 5 35 10 35 6 0 10 -16 10 -35z m31 13 l2 -23
4 23 c7 35 23 26 23 -13 0 -32 -19 -52 -21 -22 0 10 -2 10 -6 0 -10 -25 -23
-12 -23 22 0 38 19 49 21 13z m60 10 c0 -10 2 -10 6 0 10 24 23 11 23 -23 0
-38 -19 -49 -21 -12 l-2 22 -4 -22 c-7 -36 -23 -27 -23 12 0 32 19 52 21 23z
m59 -23 c0 -19 -4 -35 -10 -35 -5 0 -10 16 -10 35 0 19 5 35 10 35 6 0 10 -16
10 -35z m30 0 c0 -19 -4 -35 -10 -35 -5 0 -10 16 -10 35 0 19 5 35 10 35 6 0
10 -16 10 -35z m31 3 l1 -33 8 30 c6 25 8 27 15 12 8 -19 -10 -47 -31 -47 -9
0 -14 12 -14 35 0 44 20 46 21 3z m-271 -5 c0 -20 -3 -24 -11 -16 -7 7 -9 19
-6 27 10 24 17 19 17 -11z"/>
<path d="M277 303 c73 -2 193 -2 265 0 73 1 14 3 -132 3 -146 0 -205 -2 -133
-3z"/>
<path d="M728 303 c12 -2 32 -2 45 0 12 2 2 4 -23 4 -25 0 -35 -2 -22 -4z"/>
</g>
</svg>
