<?xml version="1.0" standalone="no"?>
<!DOCTYPE svg PUBLIC "-//W3C//DTD SVG 20010904//EN"
 "http://www.w3.org/TR/2001/REC-SVG-20010904/DTD/svg10.dtd">
<svg version="1.0" xmlns="http://www.w3.org/2000/svg"
 width="68.000000pt" height="68.000000pt" viewBox="0 0 68.000000 68.000000"
 preserveAspectRatio="xMidYMid meet">

<g transform="translate(0.000000,68.000000) scale(0.100000,-0.100000)"
fill="#000000" stroke="none">
<path d="M510 591 c0 -5 -8 -7 -19 -4 -13 3 -24 -6 -40 -33 -12 -20 -20 -43
-17 -50 7 -18 -40 -133 -68 -167 l-23 -29 -72 83 c-39 45 -70 87 -68 93 2 6
28 13 57 16 47 4 51 7 36 19 -9 8 -38 16 -65 19 -59 5 -93 -11 -160 -77 -48
-45 -49 -49 -35 -69 20 -28 49 -28 68 0 15 21 18 21 40 8 27 -17 146 -146 146
-159 0 -4 -13 -32 -30 -62 -44 -81 -39 -99 31 -99 26 0 29 3 29 33 0 18 6 42
14 52 13 17 15 16 40 -22 15 -22 38 -45 51 -51 21 -10 29 -8 51 11 l26 23 -55
64 -56 64 19 25 c11 14 40 52 65 84 45 58 45 59 55 33 5 -14 16 -26 23 -26 19
0 61 48 86 98 l22 43 -40 16 c-22 9 -38 19 -36 24 6 9 -43 49 -61 49 -8 0 -14
-4 -14 -9z m60 -32 c0 -12 -43 6 -48 20 -3 9 2 9 22 0 14 -7 26 -16 26 -20z
m69 -55 c7 -6 -20 -59 -45 -88 -29 -33 -42 -27 -53 26 -6 30 -10 33 -38 30
-25 -2 -32 2 -42 27 -11 24 -10 33 4 54 l16 25 77 -35 c42 -20 79 -37 81 -39z
m-374 16 c16 -7 11 -9 -21 -9 -42 -1 -75 -23 -54 -36 14 -9 12 -26 -5 -49 -12
-16 -18 -17 -27 -8 -20 20 -55 14 -73 -14 -15 -23 -19 -25 -32 -11 -13 13 -11
19 23 55 72 73 132 96 189 72z m201 -49 c5 -5 17 -11 27 -13 15 -3 12 -11 -20
-58 -20 -30 -65 -90 -100 -134 -61 -75 -69 -91 -75 -146 -3 -26 -24 -36 -47
-21 -19 12 12 75 99 197 40 56 72 113 79 139 11 45 19 53 37 36z m-186 -109
c40 -48 51 -68 44 -79 -5 -8 -12 -15 -15 -16 -8 -3 -119 129 -119 140 0 14 23
34 30 26 3 -5 30 -37 60 -71z m155 -178 c45 -52 47 -56 31 -72 -17 -16 -21
-14 -66 37 -42 46 -47 56 -37 72 7 11 15 19 18 19 4 0 28 -25 54 -56z"/>
<path d="M315 570 c-3 -5 -1 -10 4 -10 6 0 11 5 11 10 0 6 -2 10 -4 10 -3 0
-8 -4 -11 -10z"/>
<path d="M340 540 c0 -5 7 -7 15 -4 8 4 15 8 15 10 0 2 -7 4 -15 4 -8 0 -15
-4 -15 -10z"/>
</g>
</svg>
