<?xml version="1.0" standalone="no"?>
<!DOCTYPE svg PUBLIC "-//W3C//DTD SVG 20010904//EN"
 "http://www.w3.org/TR/2001/REC-SVG-20010904/DTD/svg10.dtd">
<svg version="1.0" xmlns="http://www.w3.org/2000/svg"
 width="64.000000pt" height="64.000000pt" viewBox="0 0 64.000000 64.000000"
 preserveAspectRatio="xMidYMid meet">

<g transform="translate(0.000000,64.000000) scale(0.100000,-0.100000)"
fill="#000000" stroke="none">
<path d="M360 565 l-54 -55 -33 32 c-27 26 -37 30 -51 22 -9 -6 -18 -26 -20
-45 -3 -26 -19 -50 -73 -105 -75 -78 -86 -109 -51 -155 29 -39 21 -84 -23
-129 -53 -54 -35 -64 19 -11 38 37 44 40 56 26 11 -14 7 -23 -35 -65 -27 -28
-45 -50 -39 -50 5 0 29 20 54 45 36 37 46 42 62 34 13 -7 23 -7 32 0 10 8 18
6 31 -9 12 -14 31 -20 58 -20 35 0 47 7 113 71 40 39 79 69 86 67 21 -8 58 10
58 29 0 9 -12 30 -27 45 l-27 28 53 54 c59 59 67 98 22 104 -18 3 -37 -10 -77
-49 l-54 -53 -40 39 -40 39 55 56 c56 56 65 76 43 98 -22 22 -43 13 -98 -43z
m86 24 c3 -6 -17 -35 -47 -65 -42 -42 -56 -51 -66 -42 -11 9 -4 21 39 65 55
56 63 60 74 42z m-62 -188 c135 -136 161 -171 123 -171 -6 0 -74 62 -149 137
-96 96 -138 145 -138 160 0 13 3 23 8 23 4 0 74 -67 156 -149z m-41 -39 c64
-64 117 -122 117 -128 0 -16 -122 -130 -147 -138 -33 -11 -70 13 -155 102
-103 106 -104 120 -11 214 37 38 70 68 73 68 3 0 58 -53 123 -118z m234 92 c4
-11 -11 -33 -45 -67 -44 -44 -53 -49 -67 -37 -14 12 -10 19 37 67 56 57 65 62
75 37z m-384 -327 c-3 -5 -25 10 -49 34 -24 23 -41 46 -37 52 3 5 25 -10 49
-34 24 -23 41 -46 37 -52z"/>
<path d="M195 439 c-4 -6 -5 -13 -2 -16 7 -7 27 6 27 18 0 12 -17 12 -25 -2z"/>
<path d="M230 394 c0 -8 5 -12 10 -9 6 3 10 10 10 16 0 5 -4 9 -10 9 -5 0 -10
-7 -10 -16z"/>
<path d="M270 370 c-8 -5 -11 -12 -7 -16 4 -4 13 -2 19 4 15 15 7 24 -12 12z"/>
<path d="M180 324 c-11 -12 -10 -18 3 -32 16 -15 18 -15 34 0 13 14 14 20 3
32 -7 9 -16 16 -20 16 -4 0 -13 -7 -20 -16z m30 -14 c0 -5 -4 -10 -10 -10 -5
0 -10 5 -10 10 0 6 5 10 10 10 6 0 10 -4 10 -10z"/>
<path d="M307 333 c-4 -3 -7 -11 -7 -17 0 -6 5 -5 12 2 6 6 9 14 7 17 -3 3 -9
2 -12 -2z"/>
<path d="M340 295 c-8 -9 -8 -15 -2 -15 12 0 26 19 19 26 -2 2 -10 -2 -17 -11z"/>
<path d="M375 259 c-11 -17 1 -21 15 -4 8 9 8 15 2 15 -6 0 -14 -5 -17 -11z"/>
<path d="M280 224 c-11 -12 -10 -18 3 -32 16 -15 18 -15 34 0 13 14 14 20 3
32 -7 9 -16 16 -20 16 -4 0 -13 -7 -20 -16z m30 -14 c0 -5 -4 -10 -10 -10 -5
0 -10 5 -10 10 0 6 5 10 10 10 6 0 10 -4 10 -10z"/>
<path d="M410 225 c-8 -9 -8 -15 -2 -15 12 0 26 19 19 26 -2 2 -10 -2 -17 -11z"/>
</g>
</svg>
