<?xml version="1.0" standalone="no"?>
<!DOCTYPE svg PUBLIC "-//W3C//DTD SVG 20010904//EN"
 "http://www.w3.org/TR/2001/REC-SVG-20010904/DTD/svg10.dtd">
<svg version="1.0" xmlns="http://www.w3.org/2000/svg"
 width="50.000000pt" height="50.000000pt" viewBox="0 0 50.000000 50.000000"
 preserveAspectRatio="xMidYMid meet">

<g transform="translate(0.000000,50.000000) scale(0.100000,-0.100000)"
fill="#000000" stroke="none">
<path d="M170 390 l0 -100 -45 0 c-35 0 -52 -6 -70 -25 -14 -13 -25 -32 -25
-41 0 -10 -8 -26 -17 -36 -16 -18 -15 -22 15 -77 18 -33 30 -65 27 -73 -3 -8
2 -21 11 -29 14 -12 19 -10 38 14 20 24 28 27 86 27 58 0 66 -3 86 -27 19 -24
24 -26 38 -14 10 9 14 21 10 34 -6 19 -3 20 80 14 l86 -7 0 220 0 220 -160 0
-160 0 0 -100z m150 -20 c0 -96 -1 -100 -19 -90 -11 5 -40 10 -65 10 l-46 0 0
90 0 90 65 0 65 0 0 -100z m150 -95 l0 -195 -70 0 c-38 0 -70 2 -70 6 0 3 10
22 22 44 21 36 22 39 5 57 -14 17 -17 41 -17 151 l0 132 65 0 65 0 0 -195z
m-168 -22 c23 -21 23 -39 -2 -70 -19 -24 -25 -25 -115 -25 -90 0 -96 1 -115
25 -24 31 -25 45 -3 69 23 25 207 27 235 1z m-234 -98 c10 -21 16 -24 39 -18
36 9 120 9 156 0 23 -6 29 -3 39 18 6 14 19 25 30 25 24 0 23 -9 -8 -64 l-26
-46 -113 0 -113 0 -26 46 c-31 55 -32 64 -8 64 11 0 24 -11 30 -25z m26 -120
c-6 -16 -24 -21 -24 -7 0 11 11 22 21 22 5 0 6 -7 3 -15z m214 -3 c6 -18 -15
-14 -22 4 -4 10 -1 14 6 12 6 -2 14 -10 16 -16z"/>
<path d="M370 265 c0 -14 5 -25 10 -25 6 0 10 11 10 25 0 14 -4 25 -10 25 -5
0 -10 -11 -10 -25z"/>
</g>
</svg>
