<?xml version="1.0" standalone="no"?>
<!DOCTYPE svg PUBLIC "-//W3C//DTD SVG 20010904//EN"
 "http://www.w3.org/TR/2001/REC-SVG-20010904/DTD/svg10.dtd">
<svg version="1.0" xmlns="http://www.w3.org/2000/svg"
 width="50.000000pt" height="50.000000pt" viewBox="0 0 50.000000 50.000000"
 preserveAspectRatio="xMidYMid meet">

<g transform="translate(0.000000,50.000000) scale(0.100000,-0.100000)"
fill="#000000" stroke="none">
<path d="M180 340 c-11 -33 -18 -40 -40 -40 -22 0 -29 -7 -40 -40 -11 -33 -18
-40 -40 -40 -21 0 -28 -7 -39 -37 -8 -21 -16 -44 -18 -50 -4 -10 49 -13 247
-13 198 0 251 3 247 13 -2 6 -10 29 -18 50 -11 30 -18 37 -39 37 -22 0 -29 7
-40 40 -11 33 -18 40 -40 40 -22 0 -29 7 -40 40 l-13 40 -57 0 -57 0 -13 -40z
m127 -10 l11 -30 -68 0 -68 0 11 30 c10 27 15 30 57 30 42 0 47 -3 57 -30z
m-80 -80 l11 -30 -68 0 -68 0 11 30 c10 27 15 30 57 30 42 0 47 -3 57 -30z
m37 15 c-4 -8 -10 -15 -14 -15 -4 0 -10 7 -14 15 -4 10 1 15 14 15 13 0 18 -5
14 -15z m123 -15 l11 -30 -68 0 -68 0 11 30 c10 27 15 30 57 30 42 0 47 -3 57
-30z m-240 -80 l11 -30 -68 0 -68 0 11 30 c10 27 15 30 57 30 42 0 47 -3 57
-30z m37 15 c-4 -8 -10 -15 -14 -15 -4 0 -10 7 -14 15 -4 10 1 15 14 15 13 0
18 -5 14 -15z m123 -15 l11 -30 -68 0 -68 0 11 30 c10 27 15 30 57 30 42 0 47
-3 57 -30z m37 15 c-4 -8 -10 -15 -14 -15 -4 0 -10 7 -14 15 -4 10 1 15 14 15
13 0 18 -5 14 -15z m123 -15 l11 -30 -68 0 -68 0 11 30 c10 27 15 30 57 30 42
0 47 -3 57 -30z"/>
</g>
</svg>
