<?xml version="1.0" standalone="no"?>
<!DOCTYPE svg PUBLIC "-//W3C//DTD SVG 20010904//EN"
 "http://www.w3.org/TR/2001/REC-SVG-20010904/DTD/svg10.dtd">
<svg version="1.0" xmlns="http://www.w3.org/2000/svg"
 width="100.000000pt" height="100.000000pt" viewBox="0 0 100.000000 100.000000"
 preserveAspectRatio="xMidYMid meet">

<g transform="translate(0.000000,100.000000) scale(0.100000,-0.100000)"
fill="#000000" stroke="none">
<path d="M251 802 c-65 -35 -71 -59 -71 -307 0 -331 -6 -325 325 -325 331 0
325 -6 325 325 0 331 6 325 -325 325 -194 0 -224 -2 -254 -18z m525 -36 l34
-34 0 -236 0 -236 -29 -32 -29 -33 -246 0 -246 0 -27 28 -28 27 -3 241 -3 240
34 34 35 35 237 0 237 0 34 -34z"/>
<path d="M403 763 c54 -2 139 -2 190 0 51 1 7 3 -98 3 -104 0 -146 -2 -92 -3z"/>
<path d="M259 733 c-13 -16 -12 -17 4 -4 16 13 21 21 13 21 -2 0 -10 -8 -17
-17z"/>
<path d="M475 675 c-16 -15 -25 -35 -24 -52 1 -26 2 -26 9 7 13 55 62 77 106
46 17 -12 22 -12 39 0 42 31 92 9 105 -46 7 -33 8 -33 9 -7 2 57 -69 96 -114
63 -17 -12 -22 -12 -39 0 -30 21 -64 17 -91 -11z"/>
<path d="M232 500 c-1 -107 2 -200 6 -207 4 -6 6 59 4 145 -4 248 -8 274 -10
62z"/>
<path d="M460 581 c0 -20 104 -121 125 -121 21 0 125 101 125 121 0 8 -8 0
-18 -16 -23 -37 -88 -95 -107 -95 -19 0 -84 58 -107 95 -10 16 -18 24 -18 16z"/>
<path d="M772 570 c0 -14 2 -19 5 -12 2 6 2 18 0 25 -3 6 -5 1 -5 -13z"/>
<path d="M774 410 c0 -63 1 -89 3 -57 2 31 2 83 0 115 -2 31 -3 5 -3 -58z"/>
<path d="M250 266 c0 -2 8 -10 18 -17 15 -13 16 -12 3 4 -13 16 -21 21 -21 13z"/>
<path d="M739 253 c-13 -16 -12 -17 4 -4 16 13 21 21 13 21 -2 0 -10 -8 -17
-17z"/>
<path d="M303 228 c7 -4 98 -8 202 -8 105 0 195 4 202 8 6 4 -85 7 -202 7
-117 0 -208 -3 -202 -7z"/>
</g>
</svg>
