<?xml version="1.0" standalone="no"?>
<!DOCTYPE svg PUBLIC "-//W3C//DTD SVG 20010904//EN"
 "http://www.w3.org/TR/2001/REC-SVG-20010904/DTD/svg10.dtd">
<svg version="1.0" xmlns="http://www.w3.org/2000/svg"
 width="80.000000pt" height="80.000000pt" viewBox="0 0 80.000000 80.000000"
 preserveAspectRatio="xMidYMid meet">

<g transform="translate(0.000000,80.000000) scale(0.100000,-0.100000)"
fill="#000000" stroke="none">
<path d="M318 691 c-76 -20 -145 -44 -154 -53 -15 -15 -11 -34 45 -254 77
-297 78 -301 99 -309 23 -9 303 64 326 85 17 17 16 26 -50 280 -37 144 -74
269 -82 276 -18 19 -25 18 -184 -25z m177 -1 c0 -11 -43 -26 -160 -57 -88 -23
-161 -42 -163 -42 -2 -1 -2 9 0 22 3 19 19 26 138 58 144 39 185 43 185 19z
m24 -67 c5 -21 28 -110 51 -197 23 -87 38 -162 33 -166 -12 -11 -312 -84 -318
-78 -7 7 -107 389 -103 393 3 3 307 83 320 84 4 1 12 -16 17 -36z m106 -414
c4 -17 3 -35 -1 -39 -17 -16 -304 -84 -313 -74 -5 5 -12 21 -16 35 -6 26 -6
26 147 67 84 22 158 41 165 41 6 1 14 -13 18 -30z"/>
<path d="M445 170 c-3 -6 1 -13 10 -16 19 -8 30 0 20 15 -8 14 -22 14 -30 1z"/>
<path d="M675 330 c-3 -5 -1 -10 4 -10 6 0 11 5 11 10 0 6 -2 10 -4 10 -3 0
-8 -4 -11 -10z"/>
</g>
</svg>
