<?xml version="1.0" standalone="no"?>
<!DOCTYPE svg PUBLIC "-//W3C//DTD SVG 20010904//EN"
 "http://www.w3.org/TR/2001/REC-SVG-20010904/DTD/svg10.dtd">
<svg version="1.0" xmlns="http://www.w3.org/2000/svg"
 width="50.000000pt" height="50.000000pt" viewBox="0 0 50.000000 50.000000"
 preserveAspectRatio="xMidYMid meet">

<g transform="translate(0.000000,50.000000) scale(0.100000,-0.100000)"
fill="#000000" stroke="none">
<path d="M273 410 c-13 -5 -23 -14 -23 -20 0 -13 6 -13 30 2 10 7 22 9 26 6
14 -15 -6 -36 -40 -42 -20 -4 -40 -15 -46 -26 -14 -26 -44 -25 -80 1 -23 17
-38 21 -71 16 -50 -7 -83 -32 -59 -47 8 -5 33 -10 55 -11 l40 -1 -32 -11 c-49
-18 -68 -42 -68 -87 0 -54 31 -85 84 -85 40 0 81 26 81 50 0 8 19 12 59 11 33
-1 62 2 66 5 3 4 8 24 11 45 5 39 28 74 40 61 4 -3 -1 -22 -10 -42 -33 -68 3
-130 75 -130 53 0 84 31 84 85 0 54 -30 84 -85 85 -47 1 -74 26 -38 35 54 14
42 77 -13 66 -23 -4 -28 -1 -33 19 -7 26 -17 29 -53 15z m117 -65 c0 -16 -35
-21 -44 -6 -8 12 4 21 26 21 10 0 18 -7 18 -15z m-62 -19 c2 -10 -4 -26 -14
-37 -10 -11 -20 -39 -23 -62 -5 -37 -9 -42 -35 -45 -46 -6 -73 6 -84 35 -20
53 -54 84 -99 90 -24 3 -40 9 -37 14 9 15 81 10 94 -6 7 -8 28 -17 47 -21 30
-6 38 -3 57 19 31 38 88 45 94 13z m-188 -91 c29 -31 18 -46 -13 -17 -28 26
-44 28 -69 5 -22 -20 -23 -41 -1 -65 21 -24 42 -23 70 4 31 29 42 14 13 -17
-29 -31 -66 -32 -97 -3 -29 27 -29 65 -1 95 28 30 68 30 98 -2z m317 3 c13
-12 23 -33 23 -47 0 -33 -37 -71 -69 -71 -55 0 -94 79 -55 111 15 12 16 10 9
-19 -7 -36 14 -72 43 -72 21 0 52 29 52 48 0 24 -31 52 -57 52 -12 0 -23 5
-23 10 0 18 53 10 77 -12z m-342 -28 c3 -5 -3 -10 -14 -10 -12 0 -21 -4 -21
-10 0 -5 9 -10 21 -10 11 0 17 -4 14 -10 -9 -15 -45 -12 -51 5 -4 8 -4 22 0
30 6 17 42 20 51 5z m320 -20 c0 -30 -41 -42 -51 -15 -10 24 4 31 20 9 8 -10
18 -16 22 -12 4 5 -1 17 -12 29 -19 21 -19 21 1 18 14 -3 20 -12 20 -29z"/>
</g>
</svg>
